<?xml version="1.0" standalone="no"?>
<!DOCTYPE svg PUBLIC "-//W3C//DTD SVG 20010904//EN"
 "http://www.w3.org/TR/2001/REC-SVG-20010904/DTD/svg10.dtd">
<svg version="1.0" xmlns="http://www.w3.org/2000/svg"
 width="700.000000pt" height="700.000000pt" viewBox="0 0 700.000000 700.000000"
 preserveAspectRatio="xMidYMid meet">
<metadata>
Created by potrace 1.11, written by Peter Selinger 2001-2013
</metadata>
<g transform="translate(0.000000,700.000000) scale(0.100000,-0.100000)"
fill="#000000" stroke="none">
<path d="M3653 4795 c3 -5 219 -590 480 -1300 262 -710 489 -1327 506 -1372
l30 -83 -147 0 -148 0 -145 363 -145 362 -584 0 -584 0 -145 -362 -145 -363
-145 0 -146 0 1020 -1020 1020 -1020 1312 0 1313 0 0 728 0 727 -1676 1675
c-922 921 -1674 1671 -1671 1665z"/>
<path d="M3282 3712 c-116 -350 -212 -641 -212 -645 0 -4 194 -7 430 -7 237 0
430 3 430 7 0 15 -425 1283 -430 1283 -3 0 -101 -287 -218 -638z"/>
</g>
</svg>
